<svg xmlns="http://www.w3.org/2000/svg" viewBox="0 0 231.03 231.03"><defs><style>.cls-1{fill:#fff;}.cls-2{fill:red;}.cls-3{fill:#662d91;}</style></defs><g id="Layer_2" data-name="Layer 2"><g id="Logo"><circle class="cls-1" cx="115.52" cy="115.52" r="115.52"/><path class="cls-2" d="M62.66,43.4h8V84.72c0,16.39-8.06,21.43-18.68,21.43a25.6,25.6,0,0,1-8.52-1.47l1.19-6.5a19,19,0,0,0,6.68,1.19c7.15,0,11.36-3.2,11.36-15.3Z"/><path class="cls-2" d="M123.76,82.61c0,16.39-11.36,23.54-22.08,23.54-12,0-21.25-8.79-21.25-22.81,0-14.84,9.71-23.54,22-23.54C115.15,59.8,123.76,69.05,123.76,82.61Zm-35.17.46c0,9.71,5.58,17,13.46,17,7.7,0,13.47-7.23,13.47-17.22,0-7.51-3.76-17-13.29-17S88.59,74.64,88.59,83.07Z"/><path class="cls-2" d="M133.56,105.14c.19-3,.37-7.51.37-11.45V40.11h8V68h.18c2.84-4.94,8-8.15,15.11-8.15,11,0,18.78,9.16,18.69,22.63,0,15.84-10,23.72-19.88,23.72-6.41,0-11.54-2.47-14.84-8.34h-.27l-.37,7.33Zm8.34-17.77a15.25,15.25,0,0,0,.36,2.93,12.45,12.45,0,0,0,12.1,9.44c8.42,0,13.46-6.87,13.46-17,0-8.89-4.58-16.49-13.19-16.49a12.84,12.84,0,0,0-12.27,9.89,15.52,15.52,0,0,0-.46,3.3Z"/><path class="cls-3" d="M76.36,176.52c-2.57,1.28-8.34,2.66-15.85,2.66-21.34,0-32.34-13.29-32.34-30.87,0-21.07,15-32.79,33.71-32.79,7.24,0,12.74,1.46,15.21,2.74l-2.84,11.09a30.18,30.18,0,0,0-11.73-2.29c-11.08,0-19.69,6.68-19.69,20.42,0,12.37,7.33,20.15,19.79,20.15a34.88,34.88,0,0,0,11.63-2Z"/><path class="cls-3" d="M109.61,178.26l-.83-4.49h-.27c-2.93,3.57-7.51,5.5-12.83,5.5-9.06,0-14.47-6.6-14.47-13.74,0-11.63,10.44-17.22,26.29-17.13v-.64c0-2.38-1.28-5.77-8.15-5.77A25.12,25.12,0,0,0,87,145.38l-2.56-9a37,37,0,0,1,17.4-3.94c14.93,0,19.69,8.79,19.69,19.33v15.57a68.91,68.91,0,0,0,.65,10.9ZM108,157.1c-7.33-.09-13,1.65-13,7.05,0,3.58,2.38,5.32,5.5,5.32a7.59,7.59,0,0,0,7.23-5.13A9.7,9.7,0,0,0,108,162Z"/><path class="cls-3" d="M134.07,178.26V143.73H128.2V133.47h5.87v-1.74c0-5.41,1.64-11.36,5.67-15,3.49-3.3,8.34-4.49,12.37-4.49a26.76,26.76,0,0,1,7.42.91L159,123.85a15,15,0,0,0-4.49-.64c-4.58,0-6.5,3.57-6.5,8v2.29h9v10.26h-8.88v34.53Z"/><path class="cls-3" d="M173.54,160.31c.46,5.77,6.14,8.52,12.65,8.52A39.42,39.42,0,0,0,198.55,167l1.83,9.44a44.22,44.22,0,0,1-16.21,2.75c-15.21,0-23.91-8.8-23.91-22.81,0-11.36,7.06-23.91,22.63-23.91,14.47,0,20,11.27,20,22.35a33.48,33.48,0,0,1-.46,5.5Zm16.4-9.53c0-3.39-1.46-9.07-7.88-9.07-5.86,0-8.24,5.32-8.61,9.07Z"/><polygon class="cls-2" points="181.7 129.34 164.45 121.69 164.45 117.1 172.28 117.1 185.42 129.34 181.7 129.34"/></g></g></svg>